<svg id="Layer_1" data-name="Layer 1" xmlns="http://www.w3.org/2000/svg" xmlns:xlink="http://www.w3.org/1999/xlink" width="436.53" height="66.74" viewBox="0 0 436.53 66.74"><defs><style>.cls-1{fill:url(#linear-gradient);}.cls-2{fill:url(#linear-gradient-2);}.cls-3{fill:url(#linear-gradient-3);}.cls-4{fill:url(#linear-gradient-5);}.cls-5{fill:url(#linear-gradient-6);}.cls-6{fill:url(#linear-gradient-7);}.cls-7{fill:url(#linear-gradient-8);}</style><linearGradient id="linear-gradient" y1="34.49" x2="436.53" y2="34.49" gradientUnits="userSpaceOnUse"><stop offset="0" stop-color="#ff0a5f"/><stop offset="1" stop-color="#ff0a5f"/></linearGradient><linearGradient id="linear-gradient-2" y1="34.57" x2="436.53" y2="34.57" xlink:href="#linear-gradient"/><linearGradient id="linear-gradient-3" y1="34.57" x2="436.53" y2="34.57" xlink:href="#linear-gradient"/><linearGradient id="linear-gradient-5" y1="60.89" x2="436.54" y2="60.89" xlink:href="#linear-gradient"/><linearGradient id="linear-gradient-6" y1="33.02" x2="436.53" y2="33.02" xlink:href="#linear-gradient"/><linearGradient id="linear-gradient-7" y1="35.09" x2="436.53" y2="35.09" xlink:href="#linear-gradient"/><linearGradient id="linear-gradient-8" y1="44.89" x2="436.53" y2="44.89" xlink:href="#linear-gradient"/></defs><title>logo</title><path class="cls-1" d="M33.71,66.56a38.86,38.86,0,0,1-13.37-2.24A31.22,31.22,0,0,1,9.68,57.92a29.66,29.66,0,0,1-7.1-10.1A32.88,32.88,0,0,1,0,34.57,32.89,32.89,0,0,1,2.58,21.33,30.43,30.43,0,0,1,9.63,11.18,31.26,31.26,0,0,1,20.12,4.69,36.14,36.14,0,0,1,33,2.41,39.45,39.45,0,0,1,46.57,4.73,28,28,0,0,1,57,11.09l-12,14.36a14.59,14.59,0,0,0-4.47-3.57,13.76,13.76,0,0,0-6.36-1.33,12.69,12.69,0,0,0-9,3.83,14.52,14.52,0,0,0-2.92,4.43,14.34,14.34,0,0,0-1.12,5.76,15.71,15.71,0,0,0,3.31,10.36q3.31,4,10.62,4a17.25,17.25,0,0,0,2.67-.21,6.58,6.58,0,0,0,2.15-.65V43.43H30.1V27.35h28V60.63A31.8,31.8,0,0,1,53.1,63a49.48,49.48,0,0,1-5.93,1.85,64,64,0,0,1-6.58,1.25A50.61,50.61,0,0,1,33.71,66.56Z"/><path class="cls-2" d="M68.28,4.13H94.51a44.46,44.46,0,0,1,8.9.9,22.54,22.54,0,0,1,7.91,3.18A17.27,17.27,0,0,1,117,14.32a19.38,19.38,0,0,1,2.15,9.59,17.76,17.76,0,0,1-2.75,9.85,17.82,17.82,0,0,1-7.89,6.58L123.93,65H100.41L88.75,43.26h-.6V65H68.28ZM88,29.84h4a16.38,16.38,0,0,0,2.26-.17,7,7,0,0,0,2.3-.73,5.18,5.18,0,0,0,1.79-1.55,4.33,4.33,0,0,0,.73-2.62,4.81,4.81,0,0,0-.6-2.58,3.85,3.85,0,0,0-1.54-1.42,6.09,6.09,0,0,0-2-.6,17.83,17.83,0,0,0-2-.13H88Z"/><path class="cls-3" d="M126.93,34.23A32.58,32.58,0,0,1,129.51,21a29.33,29.33,0,0,1,7.1-10,31.55,31.55,0,0,1,10.71-6.36,41.37,41.37,0,0,1,26.83,0A32,32,0,0,1,184.9,11,29.06,29.06,0,0,1,192,21a32.57,32.57,0,0,1,2.58,13.2A33.49,33.49,0,0,1,192,47.56a30.08,30.08,0,0,1-7.14,10.28,32,32,0,0,1-10.75,6.58,39.91,39.91,0,0,1-26.83,0,31.55,31.55,0,0,1-10.71-6.58,30.37,30.37,0,0,1-7.1-10.28A33.5,33.5,0,0,1,126.93,34.23Zm21.76,0a16.06,16.06,0,0,0,.9,5.5,13.23,13.23,0,0,0,2.49,4.3,10.9,10.9,0,0,0,3.83,2.79,11.77,11.77,0,0,0,4.82,1,11.35,11.35,0,0,0,8.6-3.78,12.85,12.85,0,0,0,2.54-4.3,16.06,16.06,0,0,0,.9-5.5,15.44,15.44,0,0,0-.9-5.37,11.55,11.55,0,0,0-2.54-4.13,11.81,11.81,0,0,0-8.6-3.57,12.24,12.24,0,0,0-4.82.95,11.24,11.24,0,0,0-3.83,2.62,11.86,11.86,0,0,0-2.49,4.13A15.44,15.44,0,0,0,148.69,34.23Z"/><path class="cls-2" d="M234.78,65H214.14L197.54,4.13h21.67l6.54,34.23h.34l7.05-34.23h21.41l7.65,34.23h.34l6.62-34.23h21L273.22,65H252.58L244,30.62h-.34Z"/><path class="cls-4" d="M306,60.89a4.66,4.66,0,0,1-1.29,3.23,4.67,4.67,0,0,1-6.71,0,4.68,4.68,0,0,1,0-6.45,4.67,4.67,0,0,1,6.71,0A4.66,4.66,0,0,1,306,60.89Z"/><path class="cls-5" d="M326.28,58.22V65h-5.85V0h5.85V31.73h.17a16.63,16.63,0,0,1,6.71-6,19.16,19.16,0,0,1,8.51-2,21.6,21.6,0,0,1,8.56,1.63,19.51,19.51,0,0,1,6.54,4.47A20.21,20.21,0,0,1,361,36.55a23.87,23.87,0,0,1,0,16.68,20.21,20.21,0,0,1-4.21,6.71,19.48,19.48,0,0,1-6.54,4.47A21.6,21.6,0,0,1,341.68,66a19.5,19.5,0,0,1-8.51-2,16.51,16.51,0,0,1-6.71-5.85Zm30-13.33a19.12,19.12,0,0,0-1-6.32,15.31,15.31,0,0,0-3-5.16,14,14,0,0,0-4.77-3.48,15.42,15.42,0,0,0-6.45-1.29,15.23,15.23,0,0,0-6.19,1.25,14.86,14.86,0,0,0-4.9,3.44,15.88,15.88,0,0,0-3.22,5.16,18.26,18.26,0,0,0,0,12.81A15.37,15.37,0,0,0,330,56.42a15.18,15.18,0,0,0,11.09,4.64,15.87,15.87,0,0,0,6.45-1.25,13.51,13.51,0,0,0,4.77-3.44,15.31,15.31,0,0,0,3-5.16A19.12,19.12,0,0,0,356.3,44.89Z"/><path class="cls-6" d="M382.18,9.29a3.81,3.81,0,0,1-1.29,3,4,4,0,0,1-5.68,0,3.81,3.81,0,0,1-1.29-3,3.81,3.81,0,0,1,1.29-3,4,4,0,0,1,5.68,0A3.81,3.81,0,0,1,382.18,9.29ZM381,65h-5.85V24.77H381Z"/><path class="cls-7" d="M436.53,44.89a22,22,0,0,1-1.59,8.43A20.3,20.3,0,0,1,430.51,60a20.07,20.07,0,0,1-6.79,4.43A23.09,23.09,0,0,1,415,66a22.85,22.85,0,0,1-8.6-1.59A20.06,20.06,0,0,1,399.64,60a20.27,20.27,0,0,1-4.43-6.71,23.12,23.12,0,0,1,0-16.86,19.85,19.85,0,0,1,11.22-11.14,22.85,22.85,0,0,1,8.6-1.59,23.09,23.09,0,0,1,8.69,1.59,20.09,20.09,0,0,1,6.79,4.43,20.29,20.29,0,0,1,4.43,6.71A22,22,0,0,1,436.53,44.89Zm-6.19,0a18.41,18.41,0,0,0-1.08-6.32,15.51,15.51,0,0,0-3.05-5.16,14.45,14.45,0,0,0-4.82-3.48A15.2,15.2,0,0,0,415,28.64a14.91,14.91,0,0,0-6.32,1.29,14.55,14.55,0,0,0-4.77,3.48,15.46,15.46,0,0,0-3.05,5.16,19.12,19.12,0,0,0,0,12.64,15.46,15.46,0,0,0,3.05,5.16,14,14,0,0,0,4.77,3.44A15.34,15.34,0,0,0,415,61.06a15.65,15.65,0,0,0,6.36-1.25,13.94,13.94,0,0,0,4.82-3.44,15.51,15.51,0,0,0,3.05-5.16A18.41,18.41,0,0,0,430.34,44.89Z"/></svg>